<svg width="21" height="21" viewBox="0 0 21 21" fill="none" xmlns="http://www.w3.org/2000/svg">
<path d="M7.22974 19.7395C7.5404 19.7395 7.79224 19.4877 7.79224 19.177C7.79224 18.8663 7.5404 18.6145 7.22974 18.6145C6.91908 18.6145 6.66724 18.8663 6.66724 19.177C6.66724 19.4877 6.91908 19.7395 7.22974 19.7395Z" fill="#22262A" stroke="#22262A" stroke-width="2" stroke-miterlimit="10" stroke-linecap="round" stroke-linejoin="round"/>
<path d="M15.1047 19.7395C15.4154 19.7395 15.6672 19.4877 15.6672 19.177C15.6672 18.8663 15.4154 18.6145 15.1047 18.6145C14.7941 18.6145 14.5422 18.8663 14.5422 19.177C14.5422 19.4877 14.7941 19.7395 15.1047 19.7395Z" fill="#22262A" stroke="#22262A" stroke-width="2" stroke-miterlimit="10" stroke-linecap="round" stroke-linejoin="round"/>
<path d="M1.04224 1.7395H3.29224L5.54224 15.2395H16.7922L19.0422 5.1145H4.41724" stroke="#22262A" stroke-width="2" stroke-linecap="round" stroke-linejoin="round"/>
</svg>
