<svg width="8" height="16" viewBox="0 0 8 16" fill="none" xmlns="http://www.w3.org/2000/svg">
<path d="M0.370537 8.08388H2.02853V14.9119C2.02853 14.9766 2.05425 15.0387 2.10001 15.0844C2.14577 15.1302 2.20782 15.1559 2.27254 15.1559H5.08453C5.14925 15.1559 5.21131 15.1302 5.25706 15.0844C5.30282 15.0387 5.32854 14.9766 5.32854 14.9119V8.11588H7.23553C7.29533 8.11578 7.35302 8.09373 7.39763 8.05392C7.44224 8.0141 7.47068 7.95928 7.47754 7.89988L7.76753 5.38588C7.77148 5.35173 7.76817 5.31714 7.75781 5.28436C7.74746 5.25159 7.73029 5.22137 7.70744 5.19569C7.6846 5.17001 7.65658 5.14945 7.62523 5.13535C7.59388 5.12125 7.5599 5.11393 7.52553 5.11388H5.32553V3.53888C5.32553 3.06388 5.58154 2.82288 6.08554 2.82288H7.52153C7.58624 2.82288 7.6483 2.79717 7.69406 2.75141C7.73982 2.70565 7.76553 2.64359 7.76553 2.57888V0.271879C7.76607 0.207508 7.74115 0.145533 7.6962 0.0994552C7.65124 0.0533779 7.58989 0.026932 7.52553 0.0258789L5.54454 0.0258789H5.45354C4.54132 0.029098 3.66083 0.361056 2.97354 0.960879C2.64923 1.2443 2.40039 1.60385 2.2494 2.00722C2.09842 2.4106 2.05002 2.84517 2.10854 3.27188V5.11488H0.367531C0.302818 5.11488 0.240759 5.14059 0.195 5.18634C0.149241 5.2321 0.123535 5.29417 0.123535 5.35888V7.83988C0.123533 7.87218 0.129938 7.90415 0.142387 7.93395C0.154837 7.96375 0.173084 7.99079 0.19606 8.01348C0.219036 8.03618 0.246287 8.05409 0.276237 8.06617C0.306188 8.07826 0.338243 8.08428 0.370537 8.08388Z" fill="#385C8E"/>
</svg>
