<svg width="39" height="26" viewBox="0 0 39 26" fill="none" xmlns="http://www.w3.org/2000/svg">
<path d="M1.79774 0.755127H36.5327C36.9815 0.767182 37.4073 0.956141 37.7172 1.28101C38.027 1.60587 38.1958 2.04015 38.1867 2.48901V24.1619C38.1958 24.6107 38.027 25.045 37.7172 25.3699C37.4073 25.6947 36.9815 25.8837 36.5327 25.8958H1.79774C1.34894 25.8837 0.923044 25.6947 0.613166 25.3699C0.303289 25.045 0.134543 24.6107 0.143684 24.1619V2.48999C0.134275 2.04096 0.303016 1.60658 0.612922 1.28149C0.922828 0.956412 1.34877 0.767181 1.79774 0.755127Z" fill="#F1F1F1"/>
<path d="M0.555794 25.3049C0.290177 24.9842 0.145512 24.5803 0.146858 24.1638V2.48999C0.137449 2.04096 0.306068 1.60658 0.615974 1.28149C0.92588 0.956412 1.35182 0.767181 1.80079 0.755127H36.5348C36.9565 0.756073 37.3609 0.922587 37.6608 1.21899L0.560798 25.3049H0.555794Z" fill="white" fill-opacity="0.73"/>
<path d="M14.7917 18.72L16.0917 16.3699L15.3677 10.7259H17.1387L17.4247 14.0662L19.1577 10.7259H20.9857L16.7767 18.72H14.7917ZM9.23865 14.5042C9.51165 13.1302 10.8387 12.6942 12.8007 12.6942C12.9177 12.0832 12.5287 11.93 11.8667 11.953C11.283 11.9812 10.7092 12.1144 10.1727 12.346L10.3276 10.973C10.9718 10.7728 11.6389 10.6554 12.3127 10.6239C13.5387 10.6019 14.9017 10.9933 14.5907 12.5863L13.8317 16.3363H12.0607L12.1766 15.7679C11.9711 15.98 11.7254 16.1494 11.4537 16.2655C11.1821 16.3815 10.8901 16.4422 10.5947 16.4442C9.75573 16.4402 9.00875 15.8938 9.23975 14.4998L9.23865 14.5042ZM11.0497 14.4168C10.9939 14.4958 10.9623 14.5893 10.9585 14.6859C10.9547 14.7824 10.979 14.8782 11.0284 14.9613C11.0778 15.0443 11.1502 15.1114 11.2368 15.1541C11.3235 15.1969 11.4208 15.2133 11.5167 15.202C11.7358 15.2117 11.951 15.142 12.1228 15.0057C12.2946 14.8694 12.4114 14.6759 12.4517 14.4603C12.4748 14.2917 12.5082 14.1248 12.5516 13.9603H12.1036C11.9041 13.9418 11.7032 13.9734 11.519 14.0526C11.3349 14.1317 11.1736 14.2554 11.0497 14.4129V14.4168ZM3.13867 16.3363L4.60266 9.16389H7.90967C8.20447 9.16128 8.49562 9.2295 8.75867 9.36262C9.02171 9.49574 9.24902 9.68994 9.42151 9.92903C9.59399 10.1681 9.70664 10.445 9.75 10.7366C9.79336 11.0282 9.76611 11.3259 9.67065 11.6048C9.57547 12.2607 9.24672 12.8601 8.74475 13.2928C8.24278 13.7255 7.60144 13.9628 6.93872 13.9603H5.55566L5.08069 16.3363H3.13867ZM5.83167 12.5863H6.7417C7.0079 12.565 7.25994 12.4575 7.45996 12.2806C7.65998 12.1037 7.79715 11.8664 7.85071 11.6048C7.89268 11.4972 7.90808 11.3813 7.89563 11.2664C7.88318 11.1516 7.84324 11.0413 7.77917 10.9451C7.71511 10.849 7.6288 10.7699 7.52759 10.7142C7.42637 10.6585 7.31314 10.6275 7.19763 10.6248H6.24768L5.83167 12.5863Z" fill="#3284AE"/>
<path d="M26.4557 14.4998C26.7317 13.1258 28.0726 12.6912 30.0616 12.6912C30.1996 12.0792 29.8057 11.928 29.1357 11.95C28.5396 11.9806 27.9531 12.1133 27.4017 12.342L27.5597 10.969C28.2195 10.7713 28.9008 10.6543 29.5887 10.6208C30.8297 10.5988 32.1887 10.9898 31.8737 12.5818L31.1057 16.3308H29.3326L29.4507 15.7649C29.0211 16.194 28.4398 16.4371 27.8326 16.4412C26.9746 16.4402 26.2187 15.8948 26.4557 14.4998ZM28.2887 14.4128C28.2348 14.4944 28.2055 14.59 28.2043 14.6877C28.2032 14.7855 28.2303 14.8813 28.2823 14.9641C28.3343 15.0469 28.409 15.1131 28.4976 15.1545C28.5861 15.196 28.6848 15.2111 28.7817 15.198C28.9995 15.2077 29.2134 15.1378 29.3837 15.0017C29.554 14.8656 29.6691 14.6723 29.7076 14.4578C29.7466 14.2828 29.7667 14.1298 29.8077 13.9578H29.3746C29.1697 13.937 28.9628 13.9679 28.7727 14.0471C28.5826 14.1264 28.4152 14.2517 28.2856 14.4119L28.2887 14.4128ZM31.9247 16.3308L33.3907 9.13696H35.2107L33.7257 16.3308H31.9247ZM20.3557 16.3308L21.8177 9.15991H25.1177C25.4116 9.15912 25.7016 9.2284 25.9634 9.36206C26.2252 9.49572 26.4514 9.68992 26.6232 9.92847C26.7949 10.167 26.9073 10.443 26.951 10.7336C26.9948 11.0243 26.9686 11.3213 26.8746 11.5999C26.7793 12.258 26.4487 12.8592 25.944 13.2922C25.4392 13.7253 24.7946 13.9607 24.1296 13.9548H22.7667L22.2727 16.3298L20.3557 16.3308ZM23.0427 12.5818H23.9307C24.199 12.5611 24.4536 12.4548 24.6566 12.2781C24.8596 12.1014 25.0003 11.8638 25.0577 11.6008C25.0975 11.4917 25.1107 11.3748 25.0962 11.2595C25.0817 11.1443 25.0399 11.0341 24.9742 10.9382C24.9086 10.8424 24.8211 10.7639 24.7189 10.7087C24.6167 10.6535 24.5028 10.6232 24.3867 10.6208H23.4387L23.0427 12.5818Z" fill="#3CA9C7"/>
</svg>
