<svg width="39" height="26" viewBox="0 0 39 26" fill="none" xmlns="http://www.w3.org/2000/svg">
<path d="M1.74766 0.791748H36.7297C36.953 0.796169 37.1731 0.844784 37.3777 0.934326C37.5822 1.02387 37.7671 1.15269 37.9219 1.31372C38.0766 1.47475 38.1981 1.66482 38.2794 1.8728C38.3607 2.08078 38.4001 2.30286 38.3956 2.52612V24.2019C38.4044 24.6526 38.2339 25.0883 37.9215 25.4133C37.6091 25.7383 37.1804 25.9259 36.7297 25.9348H1.74766C1.29694 25.9259 0.868192 25.7383 0.555766 25.4133C0.24334 25.0883 0.0728059 24.6526 0.0816453 24.2019V2.52612C0.0771355 2.30286 0.116687 2.08078 0.197978 1.8728C0.27927 1.66482 0.400689 1.47475 0.5554 1.31372C0.710111 1.15269 0.895024 1.02387 1.09959 0.934326C1.30415 0.844784 1.5244 0.796169 1.74766 0.791748Z" fill="#353A40"/>
<path d="M22.7706 17.3561C22.5063 17.2217 22.2888 17.01 22.1467 16.7496C21.9763 16.431 21.8935 16.0732 21.9067 15.712C21.8921 15.4659 21.9263 15.2192 22.0077 14.9865C22.0891 14.7537 22.2159 14.5395 22.3807 14.3561C22.556 14.1892 22.7636 14.06 22.9908 13.9767C23.2181 13.8934 23.4601 13.8575 23.7017 13.8717C23.9451 13.856 24.1892 13.8903 24.4189 13.9723C24.6487 14.0543 24.8593 14.1825 25.0377 14.3488C25.201 14.5287 25.3266 14.7396 25.4071 14.9689C25.4877 15.1982 25.5216 15.4412 25.5067 15.6837C25.5216 16.0354 25.453 16.3856 25.3066 16.7057C25.1745 16.9663 24.9687 17.1823 24.7147 17.3268C24.4173 17.4841 24.0839 17.5608 23.7477 17.549C23.4115 17.5611 23.077 17.4951 22.7706 17.3561ZM23.1766 14.9391C23.0477 15.1774 22.9802 15.444 22.9802 15.715C22.9802 15.9859 23.0477 16.2525 23.1766 16.4909C23.2446 16.5647 23.3273 16.6234 23.4192 16.6637C23.5111 16.704 23.6103 16.7252 23.7107 16.7252C23.8111 16.7252 23.9103 16.704 24.0022 16.6637C24.0941 16.6234 24.1766 16.5647 24.2446 16.4909C24.3962 16.2436 24.463 15.9534 24.4347 15.6647C24.4562 15.4041 24.3855 15.1444 24.2347 14.9308C24.1687 14.8543 24.086 14.794 23.9932 14.754C23.9003 14.714 23.7997 14.6953 23.6987 14.6998C23.5992 14.697 23.5004 14.717 23.4099 14.7584C23.3194 14.7999 23.2395 14.8619 23.1766 14.9391ZM13.2646 17.5128C13.0904 17.4957 12.9208 17.4461 12.7646 17.3668C12.6231 17.2896 12.4981 17.1851 12.3967 17.0597C12.2929 16.9407 12.2149 16.8017 12.1677 16.651C12.1064 16.4567 12.0727 16.2546 12.0677 16.0509V13.9327H13.1387V16.1007C13.1339 16.1831 13.1454 16.266 13.1727 16.3439C13.2 16.4218 13.2426 16.4934 13.2977 16.5548C13.4191 16.6591 13.5737 16.7164 13.7336 16.7164C13.8936 16.7164 14.0483 16.6591 14.1697 16.5548C14.2248 16.4928 14.2672 16.4204 14.2943 16.3419C14.3214 16.2635 14.3327 16.1806 14.3276 16.0978V13.9298H15.3987V16.048C15.3992 16.2522 15.3654 16.4551 15.2987 16.6481C15.2371 16.8317 15.1344 16.9987 14.9987 17.1368C14.8789 17.2674 14.7318 17.3697 14.5677 17.4367C14.3265 17.5206 14.072 17.5608 13.8167 17.5548C13.6323 17.5511 13.4484 17.5368 13.2657 17.5118L13.2646 17.5128ZM28.4037 17.4889L27.1036 15.5368V17.4889H26.0936V13.9337H27.0936L28.4027 15.9V13.9337H29.4147V17.4889H28.4037ZM18.4257 17.4889L17.1257 15.5368V17.4889H16.1157V13.9337H17.1157L18.4237 15.9V13.9337H19.4357V17.4889H18.4257ZM20.1957 17.4796V13.9308H21.2756V17.4796H20.1957ZM11.9907 12.4987C11.7592 12.2588 11.6217 11.9439 11.6036 11.611L12.6257 11.546C12.6364 11.6847 12.6825 11.818 12.7596 11.9337C12.8154 12.0054 12.8876 12.0624 12.9701 12.1002C13.0526 12.138 13.143 12.1556 13.2336 12.151C13.3617 12.1595 13.4884 12.1196 13.5887 12.0397C13.6263 12.0099 13.6567 11.9723 13.6779 11.9293C13.699 11.8863 13.7102 11.8391 13.7108 11.7911C13.7114 11.7432 13.7012 11.696 13.6812 11.6525C13.6611 11.609 13.6316 11.5703 13.5947 11.5397C13.4285 11.4319 13.2408 11.3616 13.0447 11.3336C12.6792 11.2724 12.3339 11.1246 12.0377 10.902C11.9401 10.817 11.8624 10.711 11.8105 10.5924C11.7587 10.4738 11.7338 10.3454 11.7377 10.216C11.7382 10.0322 11.792 9.85254 11.8927 9.69886C12.0066 9.52744 12.1693 9.39423 12.3597 9.31605C12.6322 9.2117 12.9232 9.16423 13.2147 9.17689C13.5716 9.15308 13.927 9.24183 14.2307 9.43079C14.3532 9.52773 14.4537 9.6499 14.5254 9.7887C14.5971 9.92751 14.6385 10.0799 14.6467 10.236L13.6346 10.297C13.6214 10.1641 13.5612 10.0402 13.4647 9.94788C13.3626 9.86995 13.2359 9.83138 13.1077 9.839C13.007 9.83167 12.9071 9.86043 12.8257 9.92005C12.7957 9.94401 12.7716 9.97427 12.7551 10.0089C12.7387 10.0436 12.7304 10.0814 12.7307 10.1198C12.7315 10.1497 12.739 10.179 12.7527 10.2057C12.7664 10.2324 12.7858 10.2559 12.8097 10.2741C12.9189 10.3436 13.0422 10.3879 13.1707 10.4039C13.5182 10.4683 13.857 10.5737 14.1797 10.7179C14.3617 10.8051 14.5153 10.9421 14.6227 11.1129C14.7155 11.2721 14.7633 11.4535 14.7607 11.6378C14.762 11.8617 14.6976 12.0809 14.5757 12.2687C14.4503 12.4624 14.2704 12.6148 14.0587 12.7067C13.7934 12.8137 13.5086 12.8649 13.2227 12.8561C12.781 12.9022 12.3389 12.7734 11.9907 12.4977V12.4987ZM28.4047 12.7887L27.1047 10.8361V12.7887H26.0947V9.23402H27.0947L28.4037 11.2008V9.23402H29.4156V12.7887H28.4047ZM24.5297 12.7887L23.9557 11.7018C23.9095 11.5987 23.8433 11.506 23.7607 11.4288C23.6838 11.3738 23.5913 11.3447 23.4967 11.3458H23.4017V12.7887H22.3226V9.23402H24.1117C24.3683 9.22395 24.625 9.2532 24.8727 9.32093C25.0466 9.37776 25.1964 9.49131 25.2977 9.64369C25.4089 9.81477 25.4651 10.0159 25.4587 10.2199C25.4632 10.398 25.4208 10.5745 25.3357 10.7311C25.2533 10.8735 25.1364 10.9925 24.9957 11.0778C24.8783 11.1445 24.751 11.1925 24.6187 11.2199C24.7179 11.2492 24.8123 11.2929 24.8987 11.3497C24.963 11.4054 25.0204 11.4685 25.0697 11.5377C25.1268 11.6062 25.1773 11.6801 25.2207 11.7579L25.7407 12.7887H24.5297ZM23.4027 10.673H23.8557C23.9517 10.6661 24.0467 10.6496 24.1396 10.6246C24.2093 10.6103 24.2714 10.571 24.3137 10.5138C24.3588 10.4543 24.3827 10.3814 24.3817 10.3068C24.3848 10.2574 24.3768 10.2081 24.3583 10.1622C24.3398 10.1164 24.3112 10.075 24.2747 10.0416C24.155 9.96809 24.0143 9.93629 23.8746 9.95081H23.4027V10.673ZM18.8027 12.7887V9.23402H21.6807V9.99281H19.8807V10.5577H21.5527V11.2838H19.8807V11.984H21.7357V12.7887H18.8027ZM16.1506 12.7887V10.1119H15.0557V9.23402H18.3207V10.1119H17.2207V12.7887H16.1506ZM8.28564 12.7887V9.23402H11.1637V9.99281H9.36365V10.5577H11.0347V11.2838H9.35571V11.984H11.2087V12.7887H8.28564ZM6.11865 12.7887L5.50964 10.5499L4.90271 12.7887H3.84973L3.07666 9.23402H4.09668L4.46375 11.2238L5.00171 9.23402H6.0177L6.55664 11.2218L6.92371 9.23402H7.93872L7.17273 12.7887H6.11865Z" fill="#ECD345"/>
<path d="M34.2058 17.551V9.17114H35.4058V17.551H34.2058ZM31.2158 17.551V9.17114H32.4158V17.551H31.2158Z" fill="#ECD345"/>
</svg>
