<svg width="40" height="26" viewBox="0 0 40 26" fill="none" xmlns="http://www.w3.org/2000/svg">
<path d="M2.61461 0.593994H37.5875C38.0382 0.603184 38.4669 0.790788 38.7792 1.11597C39.0914 1.44115 39.2617 1.87716 39.2525 2.32788V24.0022C39.2617 24.4529 39.0914 24.8884 38.7792 25.2136C38.4669 25.5388 38.0382 25.7269 37.5875 25.7361H2.61461C2.16388 25.7269 1.73519 25.5388 1.42296 25.2136C1.11072 24.8884 0.940456 24.4529 0.949566 24.0022V2.32788C0.940456 1.87716 1.11072 1.44115 1.42296 1.11597C1.73519 0.790788 2.16388 0.603184 2.61461 0.593994Z" fill="#5870BE"/>
<path d="M17.7046 13.1608C17.705 11.385 18.2319 9.64927 19.2188 8.17296C20.2056 6.69666 21.608 5.54613 23.2487 4.86681C24.8893 4.18749 26.6946 4.00995 28.4362 4.35656C30.1778 4.70316 31.7775 5.55836 33.0331 6.81407C34.2887 8.06979 35.1437 9.66961 35.4901 11.4112C35.8365 13.1529 35.6586 14.9581 34.9791 16.5987C34.2996 18.2393 33.149 19.6414 31.6726 20.628C30.1962 21.6147 28.4603 22.1415 26.6846 22.1417C25.5052 22.1417 24.3374 21.9095 23.2478 21.4581C22.1582 21.0068 21.1682 20.3453 20.3344 19.5113C19.5005 18.6774 18.839 17.6874 18.3878 16.5978C17.9366 15.5081 17.7045 14.3401 17.7046 13.1608Z" fill="#FFAF38"/>
<path d="M12.9255 22.1398C11.3944 22.1397 9.88883 21.748 8.55173 21.0021C7.21463 20.2563 6.09045 19.1808 5.28598 17.8781C4.48152 16.5754 4.02349 15.0888 3.95541 13.5593C3.88734 12.0297 4.21151 10.5079 4.89706 9.13887C5.58262 7.76985 6.60685 6.59923 7.87241 5.7375C9.13796 4.87577 10.6028 4.35171 12.1278 4.21553C13.6528 4.07934 15.1873 4.33532 16.5855 4.95918C17.9838 5.58304 19.1993 6.55409 20.1165 7.77998H18.9166V8.38008H20.5295C20.6505 8.57108 20.7646 8.76895 20.8706 8.96895H18.3165V9.56904H21.1595C21.2475 9.76904 21.3266 9.96914 21.3966 10.1691H17.7165V10.7688H21.5846C22.0707 12.5427 22.0037 14.423 21.3925 16.1579H17.7165V16.758H21.1555C21.0655 16.965 20.9686 17.1578 20.8706 17.3488H18.3165V17.9489H20.5226C20.3896 18.1589 20.2506 18.36 20.1096 18.549H18.9166V19.1491H19.6165C18.7738 20.0895 17.7424 20.8418 16.5896 21.3571C15.4367 21.8725 14.1883 22.139 12.9255 22.1398Z" fill="#E63737"/>
<path d="M3.07444 14.8128L3.62114 10.5528L4.46965 10.6617L5.09089 13.8074C5.14783 14.1002 5.18866 14.3191 5.21337 14.4641C5.28169 14.3153 5.38646 14.0974 5.52767 13.8103L6.928 10.9772L7.68643 11.0745L7.13973 15.3345L6.59633 15.2648L7.05391 11.6993L5.35844 15.1059L4.84991 15.0407L4.08323 11.256L3.61783 14.8825L3.07444 14.8128ZM10.045 15.3204C9.83018 15.4602 9.62832 15.5525 9.43946 15.5972C9.25253 15.6421 9.05639 15.6514 8.85105 15.625C8.51203 15.5815 8.26204 15.4658 8.10107 15.2777C7.94035 15.0877 7.87652 14.8639 7.90959 14.6063C7.92898 14.4552 7.98053 14.322 8.06425 14.2067C8.15015 14.0897 8.25316 14.0006 8.37328 13.9392C8.49533 13.878 8.62859 13.8371 8.77304 13.8162C8.87919 13.8023 9.03753 13.796 9.24804 13.7974C9.67683 13.8012 9.99546 13.7811 10.2039 13.737C10.2151 13.6655 10.2219 13.6201 10.2244 13.6008C10.2517 13.3877 10.2216 13.2312 10.134 13.1313C10.0155 12.996 9.82449 12.9114 9.56103 12.8776C9.315 12.8461 9.12731 12.8663 8.99795 12.9383C8.87077 13.0086 8.76505 13.1496 8.68078 13.3613L8.1783 13.2259C8.25288 13.013 8.35203 12.8465 8.47573 12.7265C8.59968 12.6046 8.76699 12.5207 8.97766 12.4749C9.18858 12.4271 9.42675 12.4203 9.69215 12.4543C9.95561 12.4882 10.1657 12.5466 10.3224 12.6298C10.4791 12.7129 10.5901 12.8069 10.6554 12.9117C10.721 13.0147 10.7601 13.1398 10.7727 13.2871C10.7787 13.3785 10.7667 13.5404 10.7369 13.7729L10.6474 14.4703C10.585 14.9565 10.5561 15.2659 10.5608 15.3984C10.5676 15.5293 10.5964 15.658 10.6471 15.7846L10.1008 15.7145C10.0605 15.5991 10.0419 15.4677 10.045 15.3204ZM10.1514 14.1467C9.95157 14.1998 9.65834 14.2291 9.27168 14.2346C9.05267 14.238 8.89612 14.2534 8.80204 14.2807C8.70795 14.308 8.63185 14.3563 8.57372 14.4257C8.51584 14.4931 8.48106 14.5723 8.46938 14.6634C8.45148 14.8028 8.48887 14.9258 8.58154 15.0322C8.67616 15.1389 8.82517 15.2052 9.02858 15.2313C9.23005 15.2572 9.41484 15.2366 9.58294 15.1696C9.7513 15.1006 9.8821 14.9943 9.97536 14.8507C10.0467 14.7398 10.0972 14.569 10.1268 14.3385L10.1514 14.1467ZM11.2041 14.9198L11.7318 14.9048C11.7342 15.1158 11.7942 15.285 11.9118 15.4123C12.0313 15.5399 12.2102 15.619 12.4485 15.6496C12.6887 15.6804 12.8731 15.6548 13.0018 15.5729C13.1307 15.489 13.2036 15.3812 13.2205 15.2495C13.2357 15.1313 13.1963 15.0317 13.1023 14.9507C13.0366 14.895 12.866 14.8131 12.5904 14.7049C12.2192 14.5588 11.9636 14.4413 11.8234 14.3524C11.6853 14.2618 11.5855 14.1496 11.5239 14.0156C11.4645 13.88 11.4445 13.7367 11.4639 13.5856C11.4816 13.448 11.5289 13.3251 11.6058 13.2168C11.6849 13.1069 11.7836 13.0201 11.9021 12.9565C11.9911 12.9069 12.108 12.8707 12.2527 12.8479C12.3996 12.8235 12.5534 12.8216 12.7142 12.8422C12.9564 12.8733 13.164 12.9354 13.3372 13.0285C13.5123 13.1218 13.6357 13.2342 13.7075 13.3654C13.7795 13.4948 13.8191 13.6614 13.8265 13.8651L13.3061 13.8692C13.3032 13.7074 13.2513 13.5747 13.1504 13.4712C13.0514 13.3679 12.9002 13.3032 12.6968 13.2771C12.4566 13.2463 12.2801 13.264 12.1672 13.3302C12.0543 13.3965 11.9911 13.4829 11.9774 13.5894C11.9687 13.6572 11.9822 13.721 12.0178 13.7807C12.0532 13.8424 12.1141 13.8974 12.2004 13.9459C12.2502 13.972 12.3985 14.0363 12.6453 14.1389C13.0026 14.2852 13.2498 14.3996 13.3869 14.4822C13.5262 14.5631 13.6298 14.6689 13.6977 14.7997C13.7656 14.9305 13.7881 15.085 13.7652 15.2632C13.7428 15.4376 13.6704 15.5957 13.5478 15.7375C13.4274 15.8776 13.2659 15.9779 13.0631 16.0386C12.8607 16.0973 12.6383 16.1111 12.3962 16.08C11.9952 16.0285 11.6998 15.9059 11.51 15.7122C11.3222 15.5188 11.2202 15.2546 11.2041 14.9198ZM15.4727 15.9284L15.489 16.4001C15.3378 16.4122 15.2041 16.4108 15.0878 16.3959C14.898 16.3715 14.7546 16.3226 14.6577 16.2491C14.5608 16.1756 14.4973 16.0877 14.4671 15.9854C14.4371 15.8811 14.4423 15.6721 14.4826 15.3583L14.7104 13.5828L14.3269 13.5335L14.3791 13.1267L14.7626 13.176L14.8607 12.4117L15.4211 12.1646L15.2828 13.2427L15.8087 13.3102L15.7565 13.717L15.2306 13.6495L14.999 15.4541C14.9798 15.6032 14.9763 15.7002 14.9882 15.7451C15.0021 15.7902 15.0278 15.828 15.0653 15.8584C15.1046 15.889 15.1631 15.9093 15.2406 15.9193C15.2987 15.9267 15.3761 15.9298 15.4727 15.9284ZM18.1671 15.7395L18.699 15.8757C18.5733 16.1806 18.3839 16.4054 18.131 16.5501C17.8781 16.6949 17.5725 16.7443 17.2141 16.6983C16.7627 16.6404 16.4221 16.4559 16.1923 16.1448C15.9646 15.832 15.883 15.4247 15.9474 14.923C16.014 14.4038 16.1994 14.018 16.5035 13.7656C16.8076 13.5132 17.1728 13.4144 17.599 13.4691C18.0116 13.522 18.3307 13.7057 18.5561 14.0202C18.7816 14.3346 18.8617 14.7466 18.7963 15.2561C18.7923 15.2871 18.7854 15.3335 18.7755 15.3952L16.474 15.0999C16.4499 15.4414 16.5125 15.7133 16.6618 15.9156C16.8111 16.1179 17.0145 16.2355 17.2722 16.2686C17.464 16.2932 17.6341 16.2638 17.7827 16.1805C17.9312 16.0972 18.0594 15.9502 18.1671 15.7395ZM16.5583 14.6735L18.2815 14.8947C18.2915 14.6321 18.2507 14.429 18.1588 14.2852C18.0181 14.0624 17.815 13.9339 17.5496 13.8999C17.3094 13.869 17.0966 13.9235 16.9113 14.0631C16.728 14.203 16.6103 14.4065 16.5583 14.6735ZM19.2339 16.8866L19.6299 13.8006L20.1007 13.861L20.0407 14.3288C20.1889 14.1254 20.3178 13.9952 20.4275 13.9384C20.5391 13.8818 20.6559 13.8614 20.778 13.877C20.9543 13.8997 21.1263 13.9788 21.2939 14.1146L21.0515 14.5767C20.9333 14.4848 20.8103 14.4306 20.6825 14.4142C20.5682 14.3995 20.461 14.4212 20.361 14.4792C20.2613 14.5354 20.1842 14.622 20.1298 14.739C20.0478 14.9176 19.9926 15.1172 19.9643 15.3381L19.757 16.9537L19.2339 16.8866ZM24.5195 16.0467L25.065 16.2615C24.8874 16.7093 24.629 17.0355 24.2896 17.2401C23.9524 17.4429 23.5621 17.5159 23.1184 17.459C22.6593 17.4 22.2973 17.2591 22.0326 17.0361C21.77 16.8114 21.5859 16.512 21.4803 16.1381C21.3766 15.7645 21.3509 15.3742 21.4031 14.9674C21.46 14.5238 21.5939 14.1481 21.8047 13.8404C22.0177 13.531 22.291 13.3111 22.6248 13.1807C22.9608 13.0485 23.3167 13.0066 23.6925 13.0548C24.1187 13.1095 24.4631 13.264 24.7259 13.5182C24.9886 13.7725 25.1519 14.1036 25.2157 14.5115L24.6439 14.5711C24.5849 14.2484 24.4705 14.0043 24.3008 13.8388C24.131 13.6733 23.9037 13.5722 23.619 13.5357C23.2916 13.4937 23.0074 13.537 22.7664 13.6655C22.5274 13.7944 22.3462 13.9857 22.2231 14.2397C22.1001 14.4917 22.0207 14.7582 21.9846 15.0391C21.9381 15.4014 21.9498 15.7248 22.0196 16.0095C22.0916 16.2924 22.2304 16.515 22.436 16.6773C22.6416 16.8395 22.8742 16.9373 23.1338 16.9706C23.4496 17.0112 23.7286 16.9544 23.9709 16.8004C24.2132 16.6464 24.3961 16.3952 24.5195 16.0467ZM27.5848 17.5714C27.3699 17.7112 27.1681 17.8034 26.9792 17.8481C26.7923 17.893 26.5961 17.9023 26.3908 17.876C26.0518 17.8325 25.8018 17.7167 25.6408 17.5287C25.4801 17.3387 25.4163 17.1149 25.4493 16.8572C25.4687 16.7061 25.5203 16.5729 25.604 16.4576C25.6899 16.3407 25.7929 16.2515 25.913 16.1901C26.0351 16.129 26.1683 16.088 26.3128 16.0671C26.4189 16.0532 26.5773 16.0469 26.7878 16.0484C27.2166 16.0522 27.5352 16.032 27.7437 15.9879C27.7548 15.9165 27.7616 15.8711 27.7641 15.8517C27.7915 15.6386 27.7613 15.4821 27.6737 15.3823C27.5552 15.2469 27.3642 15.1624 27.1008 15.1286C26.8547 15.097 26.6671 15.1172 26.5377 15.1892C26.4105 15.2595 26.3048 15.4006 26.2205 15.6122L25.718 15.4769C25.7926 15.2639 25.8918 15.0975 26.0155 14.9775C26.1394 14.8555 26.3067 14.7717 26.5174 14.7258C26.7283 14.6781 26.9665 14.6712 27.2319 14.7053C27.4954 14.7391 27.7054 14.7976 27.8622 14.8807C28.0189 14.9638 28.1299 15.0578 28.1952 15.1627C28.2607 15.2656 28.2998 15.3907 28.3124 15.5381C28.3184 15.6294 28.3065 15.7913 28.2767 16.0238L28.1872 16.7212C28.1248 17.2075 28.0959 17.5168 28.1005 17.6494C28.1074 17.7802 28.1361 17.9089 28.1868 18.0356L27.6405 17.9655C27.6002 17.85 27.5816 17.7187 27.5848 17.5714ZM27.6911 16.3976C27.4913 16.4508 27.1981 16.4801 26.8114 16.4856C26.5924 16.489 26.4359 16.5043 26.3418 16.5316C26.2477 16.559 26.1716 16.6073 26.1135 16.6766C26.0556 16.744 26.0208 16.8232 26.0091 16.9143C25.9912 17.0538 26.0286 17.1767 26.1213 17.2831C26.2159 17.3898 26.3649 17.4562 26.5683 17.4823C26.7698 17.5081 26.9546 17.4875 27.1227 17.4205C27.291 17.3515 27.4218 17.2452 27.5151 17.1017C27.5864 16.9907 27.6369 16.8199 27.6665 16.5894L27.6911 16.3976ZM28.829 18.118L29.2251 15.032L29.6958 15.0924L29.6358 15.5602C29.784 15.3567 29.9129 15.2266 30.0226 15.1698C30.1342 15.1132 30.2511 15.0928 30.3731 15.1084C30.5494 15.131 30.7214 15.2102 30.8891 15.3459L30.6466 15.8081C30.5285 15.7161 30.4055 15.662 30.2776 15.6455C30.1633 15.6309 30.0562 15.6526 29.9562 15.7106C29.8564 15.7667 29.7793 15.8533 29.7249 15.9704C29.6429 16.1489 29.5878 16.3486 29.5594 16.5695L29.3521 18.1851L28.829 18.118ZM32.8188 18.63L32.8688 18.2406C32.6338 18.5216 32.3265 18.6377 31.9468 18.589C31.7008 18.5574 31.4828 18.4605 31.2929 18.2983C31.105 18.1364 30.9694 17.927 30.8862 17.6701C30.8051 17.4116 30.7849 17.1245 30.8254 16.8087C30.8649 16.5007 30.9521 16.2283 31.0868 15.9916C31.2218 15.7529 31.4006 15.5799 31.6231 15.4726C31.8456 15.3653 32.0837 15.3279 32.3375 15.3605C32.5235 15.3844 32.684 15.4453 32.8191 15.5434C32.9544 15.6396 33.0596 15.7564 33.1345 15.894L33.3306 14.3655L33.8508 14.4323L33.3041 18.6923L32.8188 18.63ZM31.363 16.8777C31.3123 17.2729 31.3577 17.579 31.4992 17.7961C31.6407 18.0131 31.8247 18.1362 32.0514 18.1653C32.28 18.1946 32.4856 18.1265 32.6684 17.9609C32.8533 17.7936 32.9703 17.5182 33.0196 17.1346C33.0737 16.7123 33.0322 16.3919 32.8948 16.1734C32.7574 15.9549 32.5696 15.8304 32.3313 15.7998C32.0989 15.77 31.892 15.8399 31.7107 16.0096C31.5314 16.1796 31.4155 16.469 31.363 16.8777Z" fill="white"/>
</svg>
