<svg width="19" height="17" viewBox="0 0 19 17" fill="none" xmlns="http://www.w3.org/2000/svg">
<path fill-rule="evenodd" clip-rule="evenodd" d="M12.8221 2.96101C13.466 2.96167 14.0959 3.14815 14.6363 3.49812C15.1768 3.84808 15.6046 4.34662 15.8686 4.93385C16.1326 5.52107 16.2215 6.17205 16.1246 6.80854C16.0276 7.44504 15.749 8.03998 15.3221 8.52198C14.7091 9.21298 9.48217 14.106 9.48217 14.106C9.48217 14.106 4.24415 9.21299 3.63115 8.51099C3.08996 7.90353 2.79224 7.11759 2.79516 6.30402C2.81032 5.42729 3.16923 4.59153 3.79461 3.97688C4.41998 3.36222 5.26179 3.01783 6.13866 3.01783C7.01553 3.01783 7.85728 3.36222 8.48266 3.97688C9.10803 4.59153 9.467 5.42729 9.48217 6.30402C9.48217 5.86488 9.56863 5.43001 9.73668 5.0243C9.90474 4.61859 10.1511 4.24998 10.4616 3.93946C10.7721 3.62894 11.1407 3.3826 11.5464 3.21455C11.9522 3.0465 12.387 2.96003 12.8262 2.96003L12.8221 2.96101ZM12.8262 0.731027C11.6199 0.728922 10.4458 1.12038 9.48217 1.84602C8.37821 1.02663 7.0103 0.644208 5.64147 0.772286C4.27263 0.900364 2.99943 1.52991 2.06664 2.53986C1.13385 3.54982 0.607294 4.86892 0.588185 6.2436C0.569077 7.61828 1.05876 8.95151 1.96312 9.98701C2.58912 10.705 6.71212 14.565 7.96312 15.731C8.37604 16.1172 8.9203 16.332 9.48565 16.332C10.051 16.332 10.5952 16.1172 11.0081 15.731C12.2521 14.566 16.3581 10.716 16.9921 9.99903C17.7034 9.1955 18.1677 8.20367 18.329 7.14271C18.4903 6.08175 18.3419 4.99677 17.9015 4.01814C17.4611 3.0395 16.7475 2.20879 15.8465 1.62586C14.9455 1.04293 13.8953 0.732552 12.8221 0.732003L12.8262 0.731027Z" fill="#33A0FF"/>
</svg>
