<svg width="20" height="20" viewBox="0 0 20 20" fill="none" xmlns="http://www.w3.org/2000/svg">
<path fill-rule="evenodd" clip-rule="evenodd" d="M10 2.00049C8.3971 2.00049 7.09766 3.29993 7.09766 4.90287C7.09766 6.50581 8.3971 7.80525 10 7.80525C11.603 7.80525 12.9024 6.50581 12.9024 4.90287C12.9024 3.29993 11.603 2.00049 10 2.00049ZM5.09766 4.90287C5.09766 2.19536 7.29253 0.000488281 10 0.000488281C12.7075 0.000488281 14.9024 2.19536 14.9024 4.90287C14.9024 7.61038 12.7075 9.80525 10 9.80525C7.29253 9.80525 5.09766 7.61038 5.09766 4.90287Z" fill="#9098B1"/>
<path fill-rule="evenodd" clip-rule="evenodd" d="M7.51784 13.3904C4.47035 13.3904 2 15.8607 2 18.9082V18.9993C2 19.5516 1.55228 19.9993 1 19.9993C0.447715 19.9993 0 19.5516 0 18.9993V18.9082C0 14.7562 3.36578 11.3904 7.51784 11.3904H12.4822C16.6342 11.3904 20 14.7562 20 18.9082V18.9993C20 19.5516 19.5523 19.9993 19 19.9993C18.4477 19.9993 18 19.5516 18 18.9993V18.9082C18 15.8607 15.5296 13.3904 12.4822 13.3904H7.51784Z" fill="#9098B1"/>
</svg>
