<svg width="20" height="20" viewBox="0 0 20 20" fill="none" xmlns="http://www.w3.org/2000/svg">
<path d="M7.1875 19C7.49816 19 7.75 18.7482 7.75 18.4375C7.75 18.1268 7.49816 17.875 7.1875 17.875C6.87684 17.875 6.625 18.1268 6.625 18.4375C6.625 18.7482 6.87684 19 7.1875 19Z" fill="#9098B1" stroke="#9098B1" stroke-width="2" stroke-miterlimit="10" stroke-linecap="round" stroke-linejoin="round"/>
<path d="M15.0625 19C15.3732 19 15.625 18.7482 15.625 18.4375C15.625 18.1268 15.3732 17.875 15.0625 17.875C14.7518 17.875 14.5 18.1268 14.5 18.4375C14.5 18.7482 14.7518 19 15.0625 19Z" fill="#9098B1" stroke="#9098B1" stroke-width="2" stroke-miterlimit="10" stroke-linecap="round" stroke-linejoin="round"/>
<path d="M1 1H3.25L5.5 14.5H16.75L19 4.375H4.375" stroke="#9098B1" stroke-width="2" stroke-linecap="round" stroke-linejoin="round"/>
</svg>
