<svg width="21" height="21" viewBox="0 0 21 21" fill="none" xmlns="http://www.w3.org/2000/svg">
<path fill-rule="evenodd" clip-rule="evenodd" d="M20.8104 16.9181C20.327 15.6297 19.5858 14.4538 18.6322 13.4622C17.6786 12.4707 16.5327 11.6845 15.2648 11.1518C15.9543 10.5851 16.5111 9.87385 16.8959 9.06822C17.2807 8.26259 17.4841 7.38224 17.4918 6.48934C17.4669 4.92449 16.8634 3.42441 15.7979 2.27887C14.7323 1.13333 13.2804 0.423605 11.7226 0.286838C11.2124 0.22356 10.6965 0.22356 10.1863 0.286838C8.62937 0.424773 7.17864 1.13501 6.11415 2.28043C5.04967 3.42586 4.44685 4.92527 4.42206 6.48934C4.42948 7.38229 4.63279 8.26271 5.0176 9.06837C5.40242 9.87404 5.95939 10.5853 6.64909 11.1518C5.3809 11.6843 4.23474 12.4704 3.28092 13.4619C2.32709 14.4535 1.5857 15.6296 1.10219 16.9181C0.965799 17.2948 0.925311 17.6996 0.984406 18.0959C1.0435 18.4922 1.20032 18.8676 1.44067 19.1881C1.69008 19.5172 2.01278 19.7837 2.38311 19.9661C2.75344 20.1486 3.16122 20.2422 3.574 20.2393H18.3486C18.761 20.2421 19.1684 20.1485 19.5383 19.966C19.9082 19.7835 20.2305 19.5171 20.4795 19.1881C20.7192 18.8672 20.875 18.4915 20.9328 18.0951C20.9906 17.6987 20.9485 17.2941 20.8104 16.9181ZM7.03628 6.48934C7.05355 5.54154 7.42368 4.63431 8.07425 3.94532C8.72481 3.25632 9.60893 2.83517 10.5535 2.76433C10.8227 2.73099 11.0949 2.73099 11.3641 2.76433C12.0745 2.87333 12.7388 3.18391 13.2782 3.65922C13.8176 4.13452 14.2095 4.75464 14.4075 5.44606C14.6054 6.13748 14.6012 6.8712 14.3952 7.56027C14.1891 8.24934 13.79 8.86485 13.2452 9.33384C12.7003 9.80282 12.0325 10.1056 11.3209 10.2063C10.6093 10.3071 9.88369 10.2014 9.23022 9.90207C8.57675 9.6027 8.02277 9.1221 7.63392 8.51723C7.24506 7.91235 7.03766 7.20858 7.03628 6.48934ZM3.57148 17.7393C4.16342 16.2632 5.18335 14.9981 6.49994 14.1072C7.81652 13.2162 9.36949 12.7401 10.9588 12.7401C12.5482 12.7401 14.1011 13.2162 15.4177 14.1072C16.7343 14.9981 17.7542 16.2632 18.3461 17.7393H3.574H3.57148Z" fill="#22262A"/>
</svg>
