<svg width="69" height="89" viewBox="0 0 69 89" fill="none" xmlns="http://www.w3.org/2000/svg">
<path d="M0.515381 70.4012V88.9663H68.183V70.4012C68.1803 68.3314 67.3569 66.3472 65.8934 64.8836C64.4298 63.42 62.4456 62.5967 60.3758 62.594H8.3226C6.25282 62.5967 4.26856 63.42 2.805 64.8836C1.34144 66.3472 0.518042 68.3314 0.515381 70.4012H0.515381ZM5.72019 70.4012C5.72119 69.7113 5.99569 69.05 6.48352 68.5621C6.97135 68.0743 7.63271 67.7998 8.3226 67.7988H10.925V83.7653H5.72019V70.4012ZM16.1311 67.7988H22.8609L34.3492 79.2871L45.8375 67.7988H52.5635V83.7653H16.1311V67.7988ZM62.9782 70.4012V83.7615H57.7734V67.795H60.3758C61.0663 67.796 61.7282 68.0711 62.2162 68.5597C62.7041 69.0484 62.9782 69.7107 62.9782 70.4012ZM38.4766 67.7988L34.3492 71.9262L30.2218 67.7988H38.4766Z" fill="#FF6875"/>
<path d="M53.8207 52.1792H57.7771V46.9744H60.3795C62.4493 46.9717 64.4336 46.1483 65.8971 44.6848C67.3607 43.2212 68.1841 41.237 68.1868 39.1672V33.9624C68.1864 24.9886 64.6213 16.3825 58.2756 10.0373C51.93 3.6921 43.3236 0.127596 34.3498 0.12793C25.376 0.128263 16.7699 3.6934 10.4247 10.0391C4.07955 16.3847 0.515047 24.9911 0.515381 33.9649L0.515381 39.1697C0.518042 41.2395 1.34144 43.2237 2.805 44.6873C4.26856 46.1508 6.25282 46.9742 8.3226 46.9769H12.2652C13.7126 51.0761 16.2726 54.6914 19.6585 57.418C23.0443 60.1446 27.1224 61.8748 31.4359 62.4148C35.7495 62.9548 40.1282 62.2833 44.0817 60.4755C48.0353 58.6678 51.4075 55.7951 53.8207 52.1792ZM60.3795 41.7683H57.6263C57.7232 40.9042 57.7719 40.0354 57.7721 39.1659V33.9611C57.7719 33.0916 57.7232 32.2228 57.6263 31.3587H60.3745C61.0644 31.3597 61.7258 31.6342 62.2136 32.122C62.7014 32.6099 62.9759 33.2712 62.9769 33.9611V39.1659C62.9773 39.8567 62.7033 40.5193 62.2154 41.0082C61.7274 41.4972 61.0653 41.7724 60.3745 41.7733L60.3795 41.7683ZM34.3492 5.33589C40.6069 5.34394 46.6902 7.39849 51.6714 11.1862C56.6526 14.9739 60.2583 20.2869 61.9385 26.3148C61.4242 26.2101 60.9006 26.1574 60.3758 26.1577H56.4319C54.8174 21.5909 51.8267 17.637 47.8718 14.8405C43.9169 12.044 39.1923 10.5423 34.3486 10.5423C29.5048 10.5423 24.7802 12.044 20.8253 14.8405C16.8704 17.637 13.8797 21.5909 12.2652 26.1577H8.3226C7.79774 26.1574 7.2742 26.2101 6.7599 26.3148C8.44009 20.2869 12.0457 14.9739 17.0269 11.1862C22.0081 7.39849 28.0915 5.34394 34.3492 5.33589ZM49.2948 23.5603C47.612 25.9642 45.3757 27.928 42.7745 29.2859C40.1732 30.6438 37.2835 31.3561 34.3492 31.3625H16.3171C16.8382 27.7439 18.4362 24.366 20.9033 21.6681C23.3705 18.9702 26.5924 17.0773 30.1501 16.2356C33.7077 15.3939 37.4363 15.6424 40.8508 16.9487C44.2653 18.2551 47.2075 20.5589 49.2948 23.5603ZM8.3226 41.7733C7.63271 41.7724 6.97135 41.4979 6.48352 41.01C5.99569 40.5222 5.72119 39.8608 5.72019 39.1709V33.9661C5.72119 33.2762 5.99569 32.6149 6.48352 32.1271C6.97135 31.6392 7.63271 31.3647 8.3226 31.3637H11.0759C10.979 32.2278 10.9303 33.0966 10.93 33.9661V39.1709C10.9303 40.0404 10.979 40.9093 11.0759 41.7733H8.3226ZM16.1298 39.1709V36.5685H34.3492C37.6447 36.5624 40.902 35.8636 43.91 34.5173C46.9179 33.171 49.6092 31.2073 51.8092 28.7538C52.315 30.4445 52.5712 32.2001 52.5698 33.9649V39.1697C52.5726 41.8708 51.9713 44.5383 50.8097 46.9769H42.1564L39.8658 44.6913C38.4014 46.1554 36.4155 46.9779 34.3448 46.9779C32.2741 46.9779 30.2881 46.1554 28.8238 44.6913L25.144 48.3711C27.3588 50.5859 30.2982 51.9276 33.4226 52.1497C36.547 52.3719 39.6467 51.4597 42.1526 49.5806V52.1792H47.0809C44.5196 54.6883 41.2745 56.3853 37.7527 57.0575C34.2308 57.7296 30.5888 57.347 27.2835 55.9577C23.9782 54.5683 21.1566 52.234 19.1726 49.2475C17.1887 46.2609 16.1306 42.7551 16.1311 39.1697L16.1298 39.1709Z" fill="#FF6875"/>
</svg>
