<svg width="70" height="79" viewBox="0 0 70 79" fill="none" xmlns="http://www.w3.org/2000/svg">
<path d="M56.0753 16.7089L52.3037 21.5529C57.6497 25.6968 61.334 31.6191 62.6883 38.2462C64.0427 44.8733 62.9775 51.7662 59.6859 57.6754C56.3944 63.5845 51.0943 68.1185 44.7468 70.4554C38.3992 72.7922 31.4244 72.7772 25.087 70.4129C18.7496 68.0487 13.4692 63.4919 10.2032 57.5686C6.93711 51.6453 5.9017 44.7478 7.28464 38.1266C8.66759 31.5055 12.3773 25.5991 17.7412 21.4783C23.1052 17.3576 29.7681 15.2953 36.522 15.6654L31.2154 21.2323L35.1517 24.9888L43.5284 16.1884L47.2811 12.2471L43.3511 8.50568L34.557 0.127686L30.8018 4.06901L36.5296 9.52527C27.7441 9.1252 19.1391 12.1054 12.4828 17.8533C5.82655 23.6012 1.62469 31.6804 0.740705 40.4304C-0.143281 49.1804 2.35776 57.9367 7.72986 64.8999C13.102 71.863 20.937 76.504 29.625 77.8692C31.4177 78.1526 33.2299 78.2951 35.0448 78.2954C42.2099 78.2776 49.1908 76.0237 55.0136 71.8482C60.8363 67.6727 65.2105 61.7838 67.526 55.0031C69.8415 48.2224 69.9827 40.888 67.93 34.0232C65.8773 27.1584 61.733 21.1055 56.0753 16.7089V16.7089Z" fill="#FF6875"/>
<path d="M38.3416 61.4327V57.8999C42.5306 57.4323 46.6052 54.7871 46.6052 49.7633C46.6052 42.938 40.2588 42.156 35.6235 41.5852C32.6603 41.2307 30.391 40.8196 30.391 39.0243C30.391 36.5275 33.9112 36.2585 35.4198 36.2585C37.6652 36.2585 40.0614 37.3145 40.8761 38.661L41.1124 39.0532L45.7641 36.8984L45.534 36.4295C44.8436 35.0645 43.8234 33.8934 42.5659 33.0225C41.3084 32.1516 39.8534 31.6084 38.3328 31.4421V28.3306H32.8891V31.4271C27.8138 32.1814 24.799 34.9925 24.799 39.0231C24.799 45.5945 30.7657 46.2608 35.1194 46.7498C38.9991 47.2074 40.8044 48.1654 40.8044 49.7671C40.8044 52.8183 36.579 53.0559 35.284 53.0559C32.4013 53.0559 29.6266 51.6177 28.817 49.7068L28.6171 49.2353L23.5657 51.3763L23.7668 51.8478C25.2642 55.3541 28.4964 57.5504 32.8954 58.0697V61.4327H38.3416Z" fill="#FF6875"/>
</svg>
