<svg width="15" height="12" viewBox="0 0 15 12" fill="none" xmlns="http://www.w3.org/2000/svg">
<path d="M14.6872 1.43275C14.1369 1.67287 13.555 1.83251 12.9592 1.90675C13.5873 1.53428 14.057 0.944353 14.2792 0.248748C13.6918 0.597116 13.0492 0.842645 12.3792 0.97475C11.968 0.534708 11.4339 0.228605 10.8464 0.0962708C10.2589 -0.0360632 9.64511 0.0114971 9.08499 0.232764C8.52486 0.454032 8.0443 0.838761 7.70582 1.33689C7.36735 1.83503 7.18664 2.4235 7.1872 3.02575C7.18501 3.25564 7.20848 3.48506 7.2572 3.70975C6.06382 3.65116 4.89625 3.34137 3.8308 2.80063C2.76535 2.25989 1.82601 1.50038 1.0742 0.57175C0.688096 1.23165 0.56851 2.01406 0.739871 2.75916C0.911231 3.50426 1.36061 4.15582 1.9962 4.58075C1.52148 4.56815 1.05676 4.44159 0.641199 4.21175V4.24475C0.641842 4.93702 0.880773 5.60797 1.31783 6.14482C1.7549 6.68168 2.36345 7.05172 3.0412 7.19275C2.78446 7.26084 2.51981 7.29447 2.2542 7.29275C2.06358 7.29621 1.87315 7.27911 1.6862 7.24175C1.8798 7.83671 2.25295 8.35709 2.75434 8.73134C3.25573 9.10559 3.86075 9.31534 4.4862 9.33175C3.4256 10.1604 2.11816 10.6103 0.772199 10.6097C0.532236 10.6114 0.292411 10.5977 0.0541992 10.5687C1.42537 11.4522 3.02305 11.9197 4.6542 11.9147C5.77744 11.9226 6.89105 11.7072 7.93034 11.281C8.96963 10.8548 9.91388 10.2264 10.7082 9.43222C11.5026 8.63803 12.1313 7.69393 12.5577 6.65474C12.9841 5.61555 13.1998 4.502 13.1922 3.37875C13.1922 3.24575 13.1922 3.11775 13.1812 2.99075C13.7738 2.56739 14.2842 2.0394 14.6872 1.43275Z" fill="#03A9F4"/>
</svg>
